<svg
  width="177"
  height="40"
  viewBox="0 0 177 40"
  xmlns="http://www.w3.org/2000/svg"
  xmlns:xlink="http://www.w3.org/1999/xlink"
>
    <defs>
        <path id="thzt499lsa" d="M0 0h19.545v22.326H0z" />
        <path id="bv0m6o9x1c" d="M0 0h46.4v40H0z" />
    </defs>
    <g fill="none" fill-rule="evenodd">
        <path
      fill="#000"
      d="m65.101 14.257-.752 3.62H73.5l-1.128 5.367h-9.121L61.842 30h-7.398l4.389-21.111h17.834l-1.129 5.368zM79.281 6.667h7.386L81.83 30h-7.386zM89.155 11.424c-.65-.62-.975-1.398-.975-2.333 0-1.077.371-1.971 1.115-2.683.743-.711 1.71-1.067 2.9-1.067 1.078 0 1.942.29 2.593.87.65.578.975 1.336.975 2.27 0 1.159-.367 2.094-1.1 2.805-.736.712-1.706 1.068-2.914 1.068-1.079 0-1.943-.31-2.594-.93zm-1.475 2.271h6.85l-3.318 16.678h-6.85l3.318-16.678zM107.3 24.214c.557-.69.836-1.616.836-2.775 0-.792-.218-1.427-.654-1.905-.437-.477-1.04-.717-1.811-.717-.894 0-1.62.346-2.177 1.037-.558.691-.837 1.616-.837 2.775 0 .792.218 1.428.655 1.905.436.478 1.04.717 1.81.717.893 0 1.619-.346 2.177-1.037m4.247-9.909c1.055.61 1.912 1.499 2.572 2.668.66 1.169.99 2.546.99 4.131 0 1.789-.401 3.415-1.203 4.878-.802 1.464-1.883 2.612-3.242 3.446a8.292 8.292 0 0 1-4.414 1.25c-2.233 0-3.815-.69-4.749-2.073l-1.552 7.683h-6.88l4.505-22.593h6.484l-.304 1.525c1.258-1.22 2.76-1.83 4.505-1.83 1.137 0 2.232.305 3.288.915M125.37 14.214l6.987.003 1.281-6.206-8.347-.003c-2.012 0-3.044.273-4.088 1.083l-.024.02c-1.147.907-1.818 2.235-2.175 4.3l-3.379 16.908 6.505.002 1.595-7.88 6.664.002 1.249-6.107-6.633-.003.366-2.12zM135.327 10.552l-4.168 19.773 2.089.001a4.847 4.847 0 0 0 4.748-3.876l3.967-19.338-2.554-.001a4.142 4.142 0 0 0-4.082 3.44M152.008 21.963c-.245 1.416-1.678 2.658-3.07 2.658-.635 0-1.174-.226-1.517-.635-.361-.43-.496-1.041-.378-1.72.256-1.484 1.65-2.691 3.108-2.691.59 0 1.106.227 1.45.638.38.45.524 1.072.407 1.75m4.48-5.763c-1.356-1.614-3.356-2.504-5.63-2.505h-.004c-4.635 0-9.045 3.693-9.828 8.231-.388 2.25.148 4.381 1.51 6.001 1.375 1.638 3.412 2.54 5.738 2.541 2.211 0 4.447-.845 6.294-2.38 1.85-1.537 3.074-3.569 3.446-5.72.401-2.329-.14-4.52-1.525-6.168"
    />
        <g transform="translate(157.122 13.933)">
            <mask id="ixhwjm3a5b" fill="#fff">
                <use xlink:href="#thzt499lsa" />
            </mask>
            <path
        d="M13.403 8.068c-.27 1.352-1.598 2.422-2.965 2.387-.569-.015-1.05-.234-1.355-.617-.329-.412-.44-.987-.314-1.62.256-1.283 1.669-2.42 2.966-2.387.544.015 1.017.239 1.33.632.34.426.46.996.338 1.605m4.673-5.463C16.786.987 14.824.062 12.55.003c-2.466-.064-5.058.988-6.93 2.81C3.787 4.57 3.162 5.89 2.435 9.537L0 22.327h5.957l1.316-6.603c.886.388 1.73.576 2.673.6 4.251.11 8.572-3.46 9.437-7.795.44-2.21-.024-4.314-1.307-5.924"
        fill="#000"
        mask="url(#ixhwjm3a5b)"
      />
        </g>
        <g>
            <mask id="vfpm2cgi0d" fill="#fff">
                <use xlink:href="#bv0m6o9x1c" />
            </mask>
            <path
        d="m45.65 12.758-1.813.561-2.47.797a.567.567 0 0 1-.74-.52c-.348-10.474-9.202-16.07-20.14-12.538C10.165 4.39 1.587 14.689.227 24.873c0 0-.12.695-.224 1.737-.042.43.344.757.748.632l1.812-.561 2.47-.797a.567.567 0 0 1 .74.52c.348 10.474 9.202 16.07 20.14 12.538 10.322-3.333 18.9-13.631 20.26-23.815 0 0 .12-.695.224-1.737.042-.43-.344-.757-.747-.632"
        fill="#FFA300"
        mask="url(#vfpm2cgi0d)"
      />
        </g>
        <path
      d="m23.428 20.73 1.552-6.654a1.377 1.377 0 0 1 2.098-.84l4.875 3.205 4.527 2.975c.888.584.811 1.91-.137 2.388l-6.39 3.214-5.895 2.966c-1.044.525-2.226-.408-1.96-1.547l1.33-5.707z"
      fill="#FFF"
    />
        <path
      d="m14.194 21.626 1.552-6.653a1.377 1.377 0 0 1 2.098-.84l4.875 3.205 4.527 2.975c.888.584.811 1.91-.137 2.387l-6.39 3.215-5.895 2.966c-1.045.525-2.226-.408-1.96-1.547l1.33-5.708z"
      fill="#FFF"
    />
    </g>
</svg>
